<?xml version="1.0"?>
<svg xmlns="http://www.w3.org/2000/svg" xmlns:xlink="http://www.w3.org/1999/xlink" version="1.1" id="Capa_1" x="0px" y="0px" viewBox="0 0 512 512" style="enable-background:new 0 0 512 512;" xml:space="preserve" width="512px" height="512px" class=""><g><g>
	<g>
		<path style="fill:#019F3D" d="M125.831,104.136c-4.793,0-8.678-3.885-8.678-8.678V8.678c0-4.793,3.885-8.678,8.678-8.678    c4.793,0,8.678,3.885,8.678,8.678v86.78C134.508,100.25,130.623,104.136,125.831,104.136z" data-original="#F0785A" class="active-path" data-old_color="#039B3D"/>
		<path style="fill:#019F3D" d="M151.864,43.39H99.797c-4.793,0-8.678-3.885-8.678-8.678s3.885-8.678,8.678-8.678h52.068    c4.793,0,8.678,3.885,8.678,8.678S156.657,43.39,151.864,43.39z" data-original="#F0785A" class="active-path" data-old_color="#039B3D"/>
		<path style="fill:#019F3D" d="M151.864,69.424H99.797c-4.793,0-8.678-3.885-8.678-8.678s3.885-8.678,8.678-8.678h52.068    c4.793,0,8.678,3.885,8.678,8.678S156.657,69.424,151.864,69.424z" data-original="#F0785A" class="active-path" data-old_color="#039B3D"/>
		<path style="fill:#019F3D" d="M212.61,104.136c-4.793,0-8.678-3.885-8.678-8.678V8.678c0-4.793,3.885-8.678,8.678-8.678    s8.678,3.885,8.678,8.678v86.78C221.288,100.25,217.403,104.136,212.61,104.136z" data-original="#F0785A" class="active-path" data-old_color="#039B3D"/>
		<path style="fill:#019F3D" d="M238.644,43.39h-52.068c-4.793,0-8.678-3.885-8.678-8.678s3.885-8.678,8.678-8.678h52.068    c4.793,0,8.678,3.885,8.678,8.678S243.437,43.39,238.644,43.39z" data-original="#F0785A" class="active-path" data-old_color="#039B3D"/>
		<path style="fill:#019F3D" d="M238.644,69.424h-52.068c-4.793,0-8.678-3.885-8.678-8.678s3.885-8.678,8.678-8.678h52.068    c4.793,0,8.678,3.885,8.678,8.678S243.437,69.424,238.644,69.424z" data-original="#F0785A" class="active-path" data-old_color="#039B3D"/>
		<path style="fill:#019F3D" d="M299.39,104.136c-4.793,0-8.678-3.885-8.678-8.678V8.678c0-4.793,3.885-8.678,8.678-8.678    s8.678,3.885,8.678,8.678v86.78C308.068,100.25,304.183,104.136,299.39,104.136z" data-original="#F0785A" class="active-path" data-old_color="#039B3D"/>
		<path style="fill:#019F3D" d="M325.424,43.39h-52.068c-4.793,0-8.678-3.885-8.678-8.678s3.885-8.678,8.678-8.678h52.068    c4.793,0,8.678,3.885,8.678,8.678S330.216,43.39,325.424,43.39z" data-original="#F0785A" class="active-path" data-old_color="#039B3D"/>
		<path style="fill:#019F3D" d="M325.424,69.424h-52.068c-4.793,0-8.678-3.885-8.678-8.678s3.885-8.678,8.678-8.678h52.068    c4.793,0,8.678,3.885,8.678,8.678S330.216,69.424,325.424,69.424z" data-original="#F0785A" class="active-path" data-old_color="#039B3D"/>
		<path style="fill:#019F3D" d="M386.169,104.136c-4.793,0-8.678-3.885-8.678-8.678V8.678c0-4.793,3.885-8.678,8.678-8.678    s8.678,3.885,8.678,8.678v86.78C394.847,100.25,390.962,104.136,386.169,104.136z" data-original="#F0785A" class="active-path" data-old_color="#039B3D"/>
		<path style="fill:#019F3D" d="M412.203,43.39h-52.068c-4.793,0-8.678-3.885-8.678-8.678s3.885-8.678,8.678-8.678h52.068    c4.793,0,8.678,3.885,8.678,8.678S416.996,43.39,412.203,43.39z" data-original="#F0785A" class="active-path" data-old_color="#039B3D"/>
		<path style="fill:#019F3D" d="M412.203,69.424h-52.068c-4.793,0-8.678-3.885-8.678-8.678s3.885-8.678,8.678-8.678h52.068    c4.793,0,8.678,3.885,8.678,8.678S416.996,69.424,412.203,69.424z" data-original="#F0785A" class="active-path" data-old_color="#039B3D"/>
	</g>
	<path style="fill:#D1D4D1;" d="M91.119,95.458h329.763c9.585,0,17.356,7.771,17.356,17.356v347.119   c0,9.585-7.771,17.356-17.356,17.356H91.119c-9.585,0-17.356-7.771-17.356-17.356V112.814   C73.763,103.228,81.533,95.458,91.119,95.458z" data-original="#D1D4D1" class=""/>
	<g>
		<circle style="fill:#FFFFFF;" cx="169.22" cy="190.915" r="60.746" data-original="#FFFFFF" class=""/>
		<circle style="fill:#FFFFFF;" cx="169.22" cy="381.831" r="60.746" data-original="#FFFFFF" class=""/>
		<path style="fill:#FFFFFF;" d="M403.525,190.915c0.031,2.908-0.201,5.812-0.694,8.678c-1.339,10.042-5.289,19.558-11.455,27.596    c-3.384,4.773-7.55,8.939-12.323,12.323c-8.038,6.166-17.554,10.116-27.596,11.455c-2.865,0.497-5.77,0.729-8.678,0.694    c-2.908,0.031-5.812-0.201-8.678-0.694c-10.042-1.339-19.558-5.288-27.596-11.455c-4.773-3.384-8.939-7.55-12.323-12.323    c-6.166-8.038-10.116-17.554-11.455-27.596c-0.926-5.748-0.926-11.608,0-17.356c1.339-10.042,5.288-19.558,11.455-27.596    c3.384-4.773,7.55-8.939,12.323-12.323c8.039-6.166,17.554-10.116,27.596-11.455c5.748-0.925,11.608-0.925,17.356,0    c10.042,1.339,19.557,5.289,27.596,11.455c4.773,3.384,8.939,7.55,12.323,12.323c6.166,8.038,10.116,17.554,11.455,27.596    C403.328,185.103,403.56,188.007,403.525,190.915z" data-original="#FFFFFF" class=""/>
		<circle style="fill:#FFFFFF;" cx="342.78" cy="381.831" r="60.746" data-original="#FFFFFF" class=""/>
	</g>
	<path style="fill:#95A5A5;" d="M438.237,121.492h26.034c4.793,0,8.678,3.885,8.678,8.678v321.085c0,4.793-3.885,8.678-8.678,8.678   h-26.034V121.492z" data-original="#95A5A5" class=""/>
	<path style="fill:#7F8C8D;" d="M472.949,156.203h26.034c4.793,0,8.678,3.885,8.678,8.678v251.661c0,4.793-3.885,8.678-8.678,8.678   h-26.034V156.203z" data-original="#7F8C8D"/>
	<path style="fill:#95A5A5;" d="M73.763,459.932H47.729c-4.793,0-8.678-3.885-8.678-8.678V130.169c0-4.793,3.885-8.678,8.678-8.678   h26.034V459.932z" data-original="#95A5A5" class=""/>
	<path style="fill:#7F8C8D;" d="M39.051,425.22H13.017c-4.793,0-8.678-3.885-8.678-8.678V164.881c0-4.793,3.885-8.678,8.678-8.678   h26.034V425.22z" data-original="#7F8C8D"/>
	<path style="fill:#95A5A5;" d="M99.797,477.288h312.407v26.034c0,4.793-3.885,8.678-8.678,8.678H108.475   c-4.793,0-8.678-3.885-8.678-8.678V477.288z" data-original="#95A5A5" class=""/>
	<g>
		<path style="fill:#BDC3C7" d="M321.779,199.593l-27.596,27.596c3.384,4.773,7.55,8.939,12.323,12.323l27.596-27.596v39.051    c2.866,0.493,5.77,0.725,8.678,0.694c2.908,0.035,5.813-0.198,8.678-0.694v-39.051l27.596,27.596    c4.773-3.384,8.939-7.55,12.323-12.323l-27.596-27.596h39.051c0.493-2.866,0.725-5.77,0.694-8.678    c0.035-2.908-0.198-5.813-0.694-8.678H363.78l27.596-27.596c-3.384-4.773-7.55-8.939-12.323-12.323l-27.596,27.596v-39.051    c-5.748-0.925-11.608-0.925-17.356,0v39.051l-27.596-27.596c-4.773,3.384-8.939,7.55-12.323,12.323l27.596,27.596h-39.051    c-0.926,5.748-0.926,11.608,0,17.356H321.779z" data-original="#BDC3C7" class=""/>
		<path style="fill:#BDC3C7" d="M363.78,373.153l27.596-27.596c-3.384-4.773-7.55-8.939-12.323-12.323l-27.596,27.596v-39.051    c-5.748-0.925-11.608-0.925-17.356,0v39.051l-27.596-27.596c-4.773,3.384-8.939,7.55-12.323,12.323l27.596,27.596h-39.051    c-0.926,5.748-0.926,11.608,0,17.356h39.051l-27.596,27.596c3.384,4.773,7.55,8.939,12.323,12.323l27.596-27.596v39.051    c2.866,0.493,5.77,0.725,8.678,0.694c2.908,0.035,5.813-0.198,8.678-0.694v-39.051l27.596,27.596    c4.773-3.384,8.939-7.55,12.323-12.323l-27.596-27.596h39.051c0.493-2.866,0.725-5.77,0.694-8.678    c0.035-2.908-0.198-5.813-0.694-8.678H363.78z" data-original="#BDC3C7" class=""/>
		<path style="fill:#BDC3C7" d="M190.221,373.153l27.596-27.596c-3.384-4.773-7.55-8.939-12.323-12.323l-27.596,27.596v-39.051    c-5.748-0.925-11.608-0.925-17.356,0v39.051l-27.596-27.596c-4.773,3.384-8.939,7.55-12.323,12.323l27.596,27.596h-39.051    c-0.926,5.748-0.926,11.608,0,17.356h39.051l-27.596,27.596c3.384,4.773,7.55,8.939,12.323,12.323l27.596-27.596v39.051    c2.866,0.493,5.77,0.725,8.678,0.694c2.908,0.035,5.813-0.198,8.678-0.694v-39.051l27.596,27.596    c4.773-3.384,8.939-7.55,12.323-12.323l-27.596-27.596h39.051c0.493-2.866,0.725-5.77,0.694-8.678    c0.035-2.908-0.198-5.813-0.694-8.678H190.221z" data-original="#BDC3C7" class=""/>
		<path style="fill:#BDC3C7" d="M190.221,182.237l27.596-27.596c-3.384-4.773-7.55-8.939-12.323-12.323l-27.596,27.596v-39.051    c-5.748-0.925-11.608-0.925-17.356,0v39.051l-27.596-27.596c-4.773,3.384-8.939,7.55-12.323,12.323l27.596,27.596h-39.051    c-0.926,5.748-0.926,11.608,0,17.356h39.051l-27.596,27.596c3.384,4.773,7.55,8.939,12.323,12.323l27.596-27.596v39.051    c2.866,0.493,5.77,0.725,8.678,0.694c2.908,0.035,5.813-0.198,8.678-0.694v-39.051l27.596,27.596    c4.773-3.384,8.939-7.55,12.323-12.323l-27.596-27.596h39.051c0.493-2.866,0.725-5.77,0.694-8.678    c0.035-2.908-0.198-5.813-0.694-8.678H190.221z" data-original="#BDC3C7" class=""/>
	</g>
</g></g> </svg>
