<?xml version="1.0"?>
<svg xmlns="http://www.w3.org/2000/svg" height="512px" viewBox="-30 0 512 512.00019" width="512px" class=""><g><path d="m259.855469 512h-48.214844c-8.382813 0-15.179687-6.796875-15.179687-15.175781v-241.53125c0-8.382813 6.796874-15.175781 15.179687-15.175781h48.214844c8.382812 0 15.175781 6.792968 15.175781 15.175781v241.53125c0 8.378906-6.792969 15.175781-15.175781 15.175781zm0 0" fill="#2b75ad" data-original="#2B75AD" class="" style="fill:#C6C6C6" data-old_color="#C8C7C7"/><path d="m259.855469 240.117188h-24.109375v271.882812h24.109375c8.382812 0 15.175781-6.796875 15.175781-15.175781v-241.53125c0-8.382813-6.792969-15.175781-15.175781-15.175781zm0 0" fill="#13496b" data-original="#13496B" class="" style="fill:#5B5B5B" data-old_color="#5B5A5A"/><path d="m314.152344 133.851562-24.738282-106.832031c-4.066406-17.5625-20.015624-28.828125-37.933593-26.78125-17.914063 2.046875-30.914063 16.621094-30.914063 34.648438v182.425781c0 8.382812 6.796875 15.179688 15.175782 15.179688 24.683593 0 47.648437-11.082032 63.003906-30.402344 15.359375-19.324219 20.972656-44.195313 15.40625-68.238282zm0 0" fill="#ebf6fc" data-original="#EBF6FC" class="" style="fill:#FBFAFA" data-old_color="#F7F6F6"/><path d="m289.414062 27.019531c-4.066406-17.5625-20.015624-28.828125-37.933593-26.78125-5.867188.671875-11.203125 2.695313-15.734375 5.734375v226.519532c24.679687-.003907 47.644531-11.082032 63-30.402344 15.359375-19.324219 20.972656-44.195313 15.40625-68.238282zm0 0" fill="#cdebfc" data-original="#CDEBFC" class="active-path" style="fill:#E9E8E8" data-old_color="#EFEEEE"/><path d="m215.996094 266.695312c-12.339844-21.375-33.417969-35.722656-57.828125-39.363281-24.414063-3.640625-48.761719 3.933594-66.800781 20.777344l-80.148438 74.839844c-13.175781 12.304687-14.953125 31.753906-4.226562 46.242187 6.875 9.285156 17.195312 14.25 27.828124 14.25 5.964844 0 12.027344-1.5625 17.636719-4.800781l157.984375-91.210937c7.257813-4.191407 9.746094-13.476563 5.554688-20.734376zm0 0" fill="#ebf6fc" data-original="#EBF6FC" class="" style="fill:#FBFAFA" data-old_color="#F7F6F6"/><path d="m434.210938 352.351562-157.984376-91.210937c-7.261718-4.195313-16.542968-1.707031-20.734374 5.554687-12.339844 21.375-14.226563 46.800782-5.171876 69.761719 9.050782 22.960938 27.785157 40.257813 51.394532 47.460938l104.882812 31.992187c3.511719 1.070313 7.039063 1.582032 10.496094 1.582032 13.527344 0 25.941406-7.875 31.664062-21.042969 7.183594-16.539063 1.066407-35.082031-14.546874-44.097657zm0 0" fill="#cdebfc" data-original="#CDEBFC" class="active-path" style="fill:#E9E8E8" data-old_color="#EFEEEE"/><path d="m235.742188 202.136719c-29.308594 0-53.15625 23.84375-53.15625 53.15625s23.847656 53.160156 53.15625 53.160156c29.3125 0 53.160156-23.847656 53.160156-53.160156s-23.847656-53.15625-53.160156-53.15625zm0 0" fill="#b5efff" data-original="#B5EFFF" class="" style="fill:#F6898B" data-old_color="#F6888A"/><path d="m235.746094 202.136719v106.316406c29.3125-.003906 53.15625-23.847656 53.15625-53.160156 0-29.308594-23.84375-53.15625-53.15625-53.15625zm0 0" fill="#80dbff" data-original="#80DBFF" class="" style="fill:#FD384E" data-old_color="#FD354C"/></g> </svg>
